<svg width="40" height="48" viewBox="0 0 40 48" fill="none" xmlns="http://www.w3.org/2000/svg">
    <g filter="url(#filter0_d_922_6946)">
        <path fill-rule="evenodd" clip-rule="evenodd"
            d="M21.9636 10.6034L21.9906 16.2067H21.4861H20.9817V15.2439V14.2811L20.4403 14.3006L19.8989 14.3202L19.8837 12.9123L19.8685 11.5044L19.3778 11.4882L18.887 11.4721L18.8499 10.6717C18.8295 10.2315 18.8127 9.61148 18.8126 9.29404L18.8123 8.7168L18.4555 8.71619C18.2593 8.71585 18.0024 8.69985 17.8846 8.68065L17.6705 8.64574V7.6676V6.68946H15.4726H13.2747V9.11101V11.5326H13.8456H14.4165V12.284C14.4165 12.6973 14.4333 13.3449 14.454 13.7231L14.4914 14.4109L15.0317 14.4001L15.5719 14.3894L15.5794 15.2558L15.5868 16.1223L16.0837 16.1082L16.5807 16.0942L16.6152 16.2772C16.6341 16.3778 16.6417 16.6197 16.632 16.8148L16.6144 17.1694L16.0779 17.1808L15.5413 17.1922L15.5533 16.6995L15.5653 16.2067H13.4209H11.2765V16.7169V17.227L10.7199 17.2159L10.1633 17.2048L10.1481 18.7873L10.133 20.3698L10.6469 20.386L11.161 20.4022L11.1759 21.4827L11.1909 22.5631L10.6857 22.5808C10.0683 22.6024 10.1201 22.6995 10.0887 21.4617L10.0625 20.4304H9.01391H7.96534V21.0757V21.7211L7.49435 21.7374L7.02337 21.7538L7.0043 22.148C6.99379 22.3648 7.00321 23.2605 7.02525 24.1384L7.06521 25.7346L7.50897 25.6958L7.95278 25.657L7.97396 26.1179C8.0008 26.701 8.04241 26.7377 8.67559 26.7376L9.13568 26.7374L9.11707 27.1881L9.09845 27.6387H10.1875H11.2765V28.1516C11.2765 28.5961 11.2886 28.6599 11.3668 28.6303C11.4165 28.6115 12.1362 28.5961 12.9663 28.5961H14.4755L14.4602 27.1741L14.445 25.7522L13.9169 25.7359L13.3888 25.7198V25.2172V24.7147L12.8893 24.6984L12.3898 24.6822L12.3733 24.1915L12.3568 23.7008L11.831 23.6847L11.3051 23.6685L11.2887 23.1194L11.2724 22.5703H11.8168H12.3612V23.1053V23.6403H12.9321H13.503V24.119V24.5977H14.0337H14.5644L14.5407 25.134L14.5169 25.6703L15.555 25.6549L16.593 25.6395L16.5878 24.1091L16.5825 22.5787L17.0837 22.5593C17.3594 22.5486 17.6008 22.5461 17.6202 22.5538C17.6396 22.5615 17.6596 23.2643 17.6646 24.1156L17.6736 25.6634L17.144 25.6796L16.6144 25.6958L16.6351 26.2168L16.6558 26.7377L16.1213 26.7376L15.5868 26.7376V27.7091V28.6805L15.0587 28.6968L14.5306 28.7129V29.2571C14.5306 29.6803 14.5154 29.7862 14.4621 29.7336C14.4122 29.6844 13.9712 29.6661 12.8351 29.6661H11.2765V29.1874V28.7087L10.6628 28.6992C9.72935 28.6848 9.28514 28.6941 9.19037 28.73C9.11758 28.7575 9.10679 28.908 9.12003 29.7071L9.13568 30.6516L9.64948 30.6797L10.1633 30.7079L10.1785 32.158L10.1938 33.6081H10.7352H11.2765V34.1431V34.6781H12.3253H13.3741L13.414 35.1286L13.4538 35.5792H17.7637H22.0737L22.0612 35.1146C22.0505 34.7133 22.0616 34.6506 22.1432 34.6546C22.1952 34.6572 22.4689 34.6636 22.7515 34.6687L23.2653 34.6781V35.149V35.6198L22.9656 35.6553C22.8007 35.6748 22.5567 35.6911 22.4232 35.6913L22.1806 35.6918V36.1705V36.6492H17.8133H13.4459V36.1771V35.705L12.875 35.6961L12.3041 35.6873V37.8577V40.0281H12.875H13.4459L13.4467 40.4082C13.4471 40.6172 13.463 40.8453 13.4819 40.915L13.5163 41.0417H15.1059H16.6954L16.712 41.5063L16.7286 41.9709L19.9969 41.9855L23.2653 42V41.5209V41.0417H24.8638H26.4623V40.7962C26.4623 40.6611 26.4787 40.433 26.4986 40.2894L26.5349 40.0281H27.0975H27.6601L27.6749 37.3672L27.6897 34.7063L28.1893 34.69L28.6888 34.6737V33.7186V32.7634H29.1945H29.7002L29.7369 32.4172C29.757 32.2269 29.7735 31.9608 29.7735 31.8259V31.5808L30.3301 31.5809L30.8868 31.581L30.8878 31.2289C30.8884 31.0353 30.8948 30.5918 30.9021 30.2433L30.9153 29.6098H31.4577H32V25.5551V21.5004H31.4006H30.8011V19.3322V17.1641H30.2588H29.7164V16.6872V16.2102L28.1416 16.1944C27.2755 16.1857 26.5562 16.1892 26.5431 16.2021C26.5045 16.2402 26.5161 19.7634 26.5561 20.1405L26.5928 20.4867L27.0841 20.4869L27.5756 20.487L27.5753 22.0778L27.5751 23.6685L27.0473 23.6847L26.5194 23.7009L26.5174 23.5158C26.5163 23.4139 26.5171 22.7731 26.5191 22.0917C26.5239 20.4645 26.5289 20.4869 26.1555 20.4861C25.9945 20.4857 25.7666 20.4697 25.6488 20.4505L25.4347 20.4156L25.4352 18.5787C25.4355 17.5684 25.4519 16.6087 25.4717 16.4461L25.5077 16.1504H25.985H26.4623V15.6154V15.0804H27.0336H27.6049L27.5902 10.8709L27.5756 6.6613L27.0189 6.64519L26.4623 6.62909L26.4619 6.19467C26.4617 5.95573 26.4451 5.58923 26.4251 5.38013L26.3887 5H24.1626H21.9365L21.9636 10.6034ZM14.4782 19.4167C14.5071 19.4167 14.5306 19.6321 14.5306 19.8954V20.3741H15.0764H15.6222L15.5824 20.909L15.5426 21.444H16.0614H16.5803L16.5498 21.9368C16.5077 22.616 16.5482 22.5703 15.9882 22.5703H15.5012V22.0287V21.4869L14.9674 21.5099L14.4336 21.533L14.4613 21.0119L14.4889 20.491L13.9246 20.4747L13.3603 20.4585L13.3642 19.9517L13.3681 19.4449L13.821 19.4134C14.07 19.396 14.3079 19.3897 14.3498 19.3993C14.3916 19.4089 14.4494 19.4167 14.4782 19.4167ZM28.6317 25.698V27.6994L28.1322 27.6832L27.6327 27.6669L27.6176 25.6818L27.6026 23.6967H28.1172H28.6317V25.698Z"
            fill="white" />
    </g>
    <defs>
        <filter id="filter0_d_922_6946" x="7" y="5" width="27" height="39" filterUnits="userSpaceOnUse"
            color-interpolation-filters="sRGB">
            <feFlood flood-opacity="0" result="BackgroundImageFix" />
            <feColorMatrix in="SourceAlpha" type="matrix" values="0 0 0 0 0 0 0 0 0 0 0 0 0 0 0 0 0 0 127 0"
                result="hardAlpha" />
            <feOffset dx="2" dy="2" />
            <feComposite in2="hardAlpha" operator="out" />
            <feColorMatrix type="matrix" values="0 0 0 0 0 0 0 0 0 0 0 0 0 0 0 0 0 0 0.25 0" />
            <feBlend mode="normal" in2="BackgroundImageFix" result="effect1_dropShadow_922_6946" />
            <feBlend mode="normal" in="SourceGraphic" in2="effect1_dropShadow_922_6946" result="shape" />
        </filter>
    </defs>
</svg>