<svg width="24" height="24" viewBox="0 0 24 24" fill="none" xmlns="http://www.w3.org/2000/svg">
    <g opacity="0.4">
        <path
            d="M15 14.4004H16.7998C17.2872 14.4004 17.7226 14.6927 17.9102 15.1426C18.0976 15.5925 17.9962 16.1062 17.6514 16.4512L12.8516 21.252C12.3828 21.7207 11.6211 21.7206 11.1523 21.252H11.1484L8.97266 19.0762C9.23601 18.9862 9.48428 18.839 9.69434 18.6289L10.3848 17.9375L12 19.5527L15.3525 16.2002H14.0996C13.6012 16.2 13.2004 15.7992 13.2002 15.3008V15.123L15 13.3232V14.4004Z"
            fill="white" fill-opacity="0.48" />
        <path
            d="M9 2.40039C12.0558 2.40039 14.5738 4.6823 14.9492 7.63574L13.2002 9.38477V8.40039C13.2002 6.07914 11.3212 4.2002 9 4.2002H6.59961V6.60059H9.59961C10.2634 6.60059 10.7998 7.13703 10.7998 7.80078V11.7852L9 13.585V8.40039H6C5.33627 8.40036 4.7998 7.86393 4.7998 7.2002V3.60059C4.7998 2.93685 5.33627 2.40042 6 2.40039H9Z"
            fill="white" fill-opacity="0.48" />
    </g>
    <path
        d="M8.98705 17.9226C8.64276 18.2668 8.08454 18.2668 7.74025 17.9226L4.72697 14.9093C4.32538 14.5077 4.32538 13.8566 4.72697 13.455C5.12856 13.0534 5.77966 13.0534 6.18124 13.455L8.36365 15.6374L17.818 6.18218C18.2198 5.78034 18.8713 5.78043 19.273 6.18239C19.6744 6.58414 19.6743 7.23525 19.2727 7.63687L8.98705 17.9226Z"
        fill="white" fill-opacity="0.48" />
</svg>