<svg width="24" height="24" viewBox="0 0 24 24" fill="none" xmlns="http://www.w3.org/2000/svg">
    <path opacity="0.5"
        d="M14.4002 3.9998V5.5998H17.6002V3.9998C17.6002 3.1173 16.8827 2.3998 16.0002 2.3998C15.1177 2.3998 14.4002 3.1173 14.4002 3.9998ZM12.8002 5.5998V3.9998C12.8002 2.2323 14.2327 0.799805 16.0002 0.799805C17.7677 0.799805 19.2002 2.2323 19.2002 3.9998V5.5998C20.0827 5.5998 20.8002 6.3173 20.8002 7.1998V12.7998C20.8002 13.6823 20.0827 14.3998 19.2002 14.3998H12.8002C11.9177 14.3998 11.2002 13.6823 11.2002 12.7998V7.1998C11.2002 6.3173 11.9177 5.5998 12.8002 5.5998Z"
        fill="#FB6F92" />
    <path opacity="0.5"
        d="M12.1133 2.40553C11.9115 2.89701 11.7998 3.43507 11.7998 3.99928V4.64772L11.4941 4.9524C11.104 5.17987 10.7778 5.50529 10.5508 5.89576L8.64746 7.80006H9.89941C10.005 7.80006 10.1063 7.81876 10.2002 7.85182V12.7991C10.2002 13.4296 10.4257 14.0079 10.7998 14.4583V16.2005C10.7995 16.864 10.2632 17.3997 9.59961 17.3997H6.59961V19.8001H9C11.3212 19.8 13.2002 17.9211 13.2002 15.5999V15.3987H15V15.6038C15 18.9187 12.3149 21.6037 9 21.6038H6C5.33625 21.6038 4.7998 21.0673 4.7998 20.4036V16.804C4.7998 16.1402 5.33625 15.6038 6 15.6038H9V9.60377H7.2002C6.71656 9.60377 6.27742 9.3114 6.08984 8.86158C5.90234 8.41158 6.00738 7.89701 6.34863 7.55201L11.1484 2.75221H11.1523C11.4151 2.48957 11.7698 2.37373 12.1133 2.40553Z"
        fill="#FB6F92" />
</svg>