<svg width="24" height="24" viewBox="0 0 24 24" fill="none" xmlns="http://www.w3.org/2000/svg">
    <path opacity="0.4"
        d="M6.6001 17.3998V19.7998H9.0001C11.3213 19.7998 13.2001 17.921 13.2001 15.5998V8.69977C13.2001 8.20102 13.6013 7.79977 14.1001 7.79977H15.3526L12.0001 4.44727L8.6476 7.79977H9.9001C10.3988 7.79977 10.8001 8.20102 10.8001 8.69977V16.1998C10.8001 16.8635 10.2638 17.3998 9.6001 17.3998H6.6001Z"
        fill="#FB6F92" />
    <g filter="url(#filter0_d_832_7435)">
        <path
            d="M11.9998 4.44793L8.64731 7.80043H9.89981C10.3986 7.80043 10.7998 8.20168 10.7998 8.70043V16.2004C10.7998 16.8642 10.2636 17.4004 9.5998 17.4004H6.5998V19.8004H8.9998C11.3211 19.8004 13.1998 17.9217 13.1998 15.6004V8.70043C13.1998 8.20168 13.6011 7.80043 14.0998 7.80043H15.3523L11.9998 4.44793ZM11.1523 2.75293C11.6211 2.28418 12.3823 2.28418 12.8511 2.75293L17.6511 7.55293C17.9961 7.89793 18.0973 8.41168 17.9098 8.86168C17.7223 9.31168 17.2873 9.60418 16.7998 9.60418H14.9998V15.6042C14.9998 18.9192 12.3148 21.6042 8.9998 21.6042H5.9998C5.33605 21.6042 4.7998 21.0679 4.7998 20.4042V16.8042C4.7998 16.1404 5.33605 15.6042 5.9998 15.6042H8.9998V9.60418H7.1998C6.71605 9.60418 6.2773 9.31168 6.0898 8.86168C5.9023 8.41168 6.0073 7.89793 6.34855 7.55293L11.1486 2.75293H11.1523Z"
            fill="#FB6F92" />
    </g>
    <defs>
        <filter id="filter0_d_832_7435" x="4.7998" y="2.40137" width="15.2031" height="21.2031"
            filterUnits="userSpaceOnUse" color-interpolation-filters="sRGB">
            <feFlood flood-opacity="0" result="BackgroundImageFix" />
            <feColorMatrix in="SourceAlpha" type="matrix" values="0 0 0 0 0 0 0 0 0 0 0 0 0 0 0 0 0 0 127 0"
                result="hardAlpha" />
            <feOffset dx="2" dy="2" />
            <feComposite in2="hardAlpha" operator="out" />
            <feColorMatrix type="matrix" values="0 0 0 0 0 0 0 0 0 0 0 0 0 0 0 0 0 0 0.24 0" />
            <feBlend mode="normal" in2="BackgroundImageFix" result="effect1_dropShadow_832_7435" />
            <feBlend mode="normal" in="SourceGraphic" in2="effect1_dropShadow_832_7435" result="shape" />
        </filter>
    </defs>
</svg>