<svg width="24" height="24" viewBox="0 0 24 24" fill="none" xmlns="http://www.w3.org/2000/svg">
    <path opacity="0.4"
        d="M6.6001 9V19.2C6.6001 19.53 6.8701 19.8 7.2001 19.8H16.8001C17.1301 19.8 17.4001 19.53 17.4001 19.2V9H6.6001ZM9.6001 11.1C9.6001 11.5988 9.19885 12 8.7001 12C8.20135 12 7.8001 11.5988 7.8001 11.1C7.8001 10.6013 8.20135 10.2 8.7001 10.2C9.19885 10.2 9.6001 10.6013 9.6001 11.1ZM9.6001 14.4C9.6001 14.8988 9.19885 15.3 8.7001 15.3C8.20135 15.3 7.8001 14.8988 7.8001 14.4C7.8001 13.9013 8.20135 13.5 8.7001 13.5C9.19885 13.5 9.6001 13.9013 9.6001 14.4ZM7.8001 17.7C7.8001 17.2013 8.20135 16.8 8.7001 16.8H12.0001C12.4988 16.8 12.9001 17.2013 12.9001 17.7C12.9001 18.1988 12.4988 18.6 12.0001 18.6H8.7001C8.20135 18.6 7.8001 18.1988 7.8001 17.7ZM12.9001 11.1C12.9001 11.5988 12.4988 12 12.0001 12C11.5013 12 11.1001 11.5988 11.1001 11.1C11.1001 10.6013 11.5013 10.2 12.0001 10.2C12.4988 10.2 12.9001 10.6013 12.9001 11.1ZM12.9001 14.4C12.9001 14.8988 12.4988 15.3 12.0001 15.3C11.5013 15.3 11.1001 14.8988 11.1001 14.4C11.1001 13.9013 11.5013 13.5 12.0001 13.5C12.4988 13.5 12.9001 13.9013 12.9001 14.4ZM16.2001 11.1C16.2001 11.5988 15.7988 12 15.3001 12C14.8013 12 14.4001 11.5988 14.4001 11.1C14.4001 10.6013 14.8013 10.2 15.3001 10.2C15.7988 10.2 16.2001 10.6013 16.2001 11.1ZM16.2001 14.4C16.2001 14.8988 15.7988 15.3 15.3001 15.3C14.8013 15.3 14.4001 14.8988 14.4001 14.4C14.4001 13.9013 14.8013 13.5 15.3001 13.5C15.7988 13.5 16.2001 13.9013 16.2001 14.4ZM14.4001 17.7C14.4001 17.2013 14.8013 16.8 15.3001 16.8C15.7988 16.8 16.2001 17.2013 16.2001 17.7C16.2001 18.1988 15.7988 18.6 15.3001 18.6C14.8013 18.6 14.4001 18.1988 14.4001 17.7Z"
        fill="#7BF1A8" />
    <g filter="url(#filter0_d_832_7420)">
        <path
            d="M17.3998 9.00039V19.2004C17.3998 19.5304 17.1298 19.8004 16.7998 19.8004H7.1998C6.8698 19.8004 6.5998 19.5304 6.5998 19.2004V9.00039H17.3998ZM17.3998 7.20039H6.5998V4.80039C6.5998 4.47039 6.8698 4.20039 7.1998 4.20039H16.7998C17.1298 4.20039 17.3998 4.47039 17.3998 4.80039V7.20039ZM19.1998 7.20039V4.80039C19.1998 3.47664 18.1236 2.40039 16.7998 2.40039H7.1998C5.87605 2.40039 4.7998 3.47664 4.7998 4.80039V19.2004C4.7998 20.5241 5.87605 21.6004 7.1998 21.6004H16.7998C18.1236 21.6004 19.1998 20.5241 19.1998 19.2004V7.20039ZM7.7998 11.1004C7.7998 11.5991 8.20105 12.0004 8.6998 12.0004C9.19855 12.0004 9.5998 11.5991 9.5998 11.1004C9.5998 10.6016 9.19855 10.2004 8.6998 10.2004C8.20105 10.2004 7.7998 10.6016 7.7998 11.1004ZM8.6998 13.5004C8.20105 13.5004 7.7998 13.9016 7.7998 14.4004C7.7998 14.8991 8.20105 15.3004 8.6998 15.3004C9.19855 15.3004 9.5998 14.8991 9.5998 14.4004C9.5998 13.9016 9.19855 13.5004 8.6998 13.5004ZM7.7998 17.7004C7.7998 18.1991 8.20105 18.6004 8.6998 18.6004H11.9998C12.4986 18.6004 12.8998 18.1991 12.8998 17.7004C12.8998 17.2016 12.4986 16.8004 11.9998 16.8004H8.6998C8.20105 16.8004 7.7998 17.2016 7.7998 17.7004ZM11.9998 10.2004C11.5011 10.2004 11.0998 10.6016 11.0998 11.1004C11.0998 11.5991 11.5011 12.0004 11.9998 12.0004C12.4986 12.0004 12.8998 11.5991 12.8998 11.1004C12.8998 10.6016 12.4986 10.2004 11.9998 10.2004ZM11.0998 14.4004C11.0998 14.8991 11.5011 15.3004 11.9998 15.3004C12.4986 15.3004 12.8998 14.8991 12.8998 14.4004C12.8998 13.9016 12.4986 13.5004 11.9998 13.5004C11.5011 13.5004 11.0998 13.9016 11.0998 14.4004ZM15.2998 10.2004C14.8011 10.2004 14.3998 10.6016 14.3998 11.1004C14.3998 11.5991 14.8011 12.0004 15.2998 12.0004C15.7986 12.0004 16.1998 11.5991 16.1998 11.1004C16.1998 10.6016 15.7986 10.2004 15.2998 10.2004ZM14.3998 14.4004C14.3998 14.8991 14.8011 15.3004 15.2998 15.3004C15.7986 15.3004 16.1998 14.8991 16.1998 14.4004C16.1998 13.9016 15.7986 13.5004 15.2998 13.5004C14.8011 13.5004 14.3998 13.9016 14.3998 14.4004ZM15.2998 16.8004C14.8011 16.8004 14.3998 17.2016 14.3998 17.7004C14.3998 18.1991 14.8011 18.6004 15.2998 18.6004C15.7986 18.6004 16.1998 18.1991 16.1998 17.7004C16.1998 17.2016 15.7986 16.8004 15.2998 16.8004Z"
            fill="#7BF1A8" />
    </g>
    <defs>
        <filter id="filter0_d_832_7420" x="4.7998" y="2.40039" width="16.3999" height="21.2002"
            filterUnits="userSpaceOnUse" color-interpolation-filters="sRGB">
            <feFlood flood-opacity="0" result="BackgroundImageFix" />
            <feColorMatrix in="SourceAlpha" type="matrix" values="0 0 0 0 0 0 0 0 0 0 0 0 0 0 0 0 0 0 127 0"
                result="hardAlpha" />
            <feOffset dx="2" dy="2" />
            <feComposite in2="hardAlpha" operator="out" />
            <feColorMatrix type="matrix" values="0 0 0 0 0 0 0 0 0 0 0 0 0 0 0 0 0 0 0.24 0" />
            <feBlend mode="normal" in2="BackgroundImageFix" result="effect1_dropShadow_832_7420" />
            <feBlend mode="normal" in="SourceGraphic" in2="effect1_dropShadow_832_7420" result="shape" />
        </filter>
    </defs>
</svg>