<svg width="24" height="24" viewBox="0 0 24 24" fill="none" xmlns="http://www.w3.org/2000/svg">
    <path opacity="0.5"
        d="M14.4002 3.9998V5.5998H17.6002V3.9998C17.6002 3.1173 16.8827 2.3998 16.0002 2.3998C15.1177 2.3998 14.4002 3.1173 14.4002 3.9998ZM12.8002 5.5998V3.9998C12.8002 2.2323 14.2327 0.799805 16.0002 0.799805C17.7677 0.799805 19.2002 2.2323 19.2002 3.9998V5.5998C20.0827 5.5998 20.8002 6.3173 20.8002 7.1998V12.7998C20.8002 13.6823 20.0827 14.3998 19.2002 14.3998H12.8002C11.9177 14.3998 11.2002 13.6823 11.2002 12.7998V7.1998C11.2002 6.3173 11.9177 5.5998 12.8002 5.5998Z"
        fill="#7BF1A8" />
    <g opacity="0.5">
        <path
            d="M12.1162 2.40039C11.9129 2.89352 11.7998 3.43347 11.7998 4V4.2002H7.2002C6.8702 4.2002 6.59961 4.47078 6.59961 4.80078V7.2002H10.2002V9H6.59961V19.2002C6.59961 19.5302 6.8702 19.8008 7.2002 19.8008H16.7998C17.1298 19.8008 17.3994 19.5302 17.3994 19.2002V15.3994H19.2002V19.2002C19.2002 20.5239 18.1236 21.6006 16.7998 21.6006H7.2002C5.87645 21.6006 4.7998 20.5239 4.7998 19.2002V4.80078C4.7998 3.47703 5.87645 2.40039 7.2002 2.40039H12.1162Z"
            fill="#7BF1A8" />
        <path
            d="M12 16.8008C12.4986 16.8009 12.8993 17.2016 12.8994 17.7002C12.8994 18.1989 12.4987 18.6005 12 18.6006H8.7002C8.20145 18.6006 7.7998 18.1989 7.7998 17.7002C7.79991 17.2015 8.20151 16.8008 8.7002 16.8008H12Z"
            fill="#7BF1A8" />
        <path
            d="M15.2998 16.8008C15.7985 16.8008 16.2001 17.2015 16.2002 17.7002C16.2002 18.1989 15.7986 18.6006 15.2998 18.6006C14.8011 18.6006 14.3994 18.1989 14.3994 17.7002C14.3995 17.2015 14.8011 16.8008 15.2998 16.8008Z"
            fill="#7BF1A8" />
        <path
            d="M8.7002 13.5C9.19876 13.5002 9.59961 13.9018 9.59961 14.4004C9.59961 14.899 9.19876 15.3006 8.7002 15.3008C8.20145 15.3008 7.7998 14.8991 7.7998 14.4004C7.7998 13.9016 8.20145 13.5 8.7002 13.5Z"
            fill="#7BF1A8" />
        <path
            d="M11.2314 14.8691C11.4833 15.0604 11.7703 15.2063 12.082 15.2959C12.055 15.2983 12.0277 15.3008 12 15.3008C11.6734 15.3008 11.3891 15.1279 11.2314 14.8691Z"
            fill="#7BF1A8" />
        <path
            d="M8.7002 10.2002C9.19876 10.2004 9.59961 10.602 9.59961 11.1006C9.5995 11.5991 9.1987 11.9998 8.7002 12C8.20151 12 7.79991 11.5992 7.7998 11.1006C7.7998 10.6018 8.20145 10.2002 8.7002 10.2002Z"
            fill="#7BF1A8" />
    </g>
</svg>