<svg width="24" height="24" viewBox="0 0 24 24" fill="none" xmlns="http://www.w3.org/2000/svg">
    <path opacity="0.4"
        d="M5.3999 10.8002C5.3999 13.4627 6.9749 15.7577 9.2474 16.8002H14.7524C17.0249 15.7577 18.5999 13.4627 18.5999 10.8002C18.5999 7.1552 15.6449 4.2002 11.9999 4.2002C8.3549 4.2002 5.3999 7.1552 5.3999 10.8002ZM7.96115 7.51895L8.95115 7.15145L9.31865 6.16145C9.41615 5.89895 9.78365 5.89895 9.88115 6.16145L10.2487 7.15145L11.2387 7.51895C11.5012 7.61645 11.5012 7.98395 11.2387 8.08145L10.2487 8.44895L9.88115 9.43895C9.78365 9.70145 9.41615 9.70145 9.31865 9.43895L8.95115 8.44895L7.96115 8.08145C7.69865 7.98395 7.69865 7.61645 7.96115 7.51895ZM11.5612 10.5189L13.4287 9.82895L14.1187 7.96145C14.2162 7.69895 14.5837 7.69895 14.6812 7.96145L15.3712 9.82895L17.2387 10.5189C17.5012 10.6164 17.5012 10.9839 17.2387 11.0814L15.3712 11.7714L14.6812 13.6389C14.5837 13.9014 14.2162 13.9014 14.1187 13.6389L13.4287 11.7714L11.5612 11.0814C11.2987 10.9839 11.2987 10.6164 11.5612 10.5189Z"
        fill="#A594F9" />
    <g filter="url(#filter0_d_832_7423)">
        <path
            d="M18.6001 10.8004C18.6001 7.15539 15.6451 4.20039 12.0001 4.20039C8.3551 4.20039 5.4001 7.15539 5.4001 10.8004C5.4001 13.4629 6.9751 15.7579 9.2476 16.8004H14.7526C17.0251 15.7579 18.6001 13.4629 18.6001 10.8004ZM6.85885 17.4454C4.8751 15.9079 3.6001 13.5041 3.6001 10.8004C3.6001 6.16164 7.36135 2.40039 12.0001 2.40039C16.6388 2.40039 20.4001 6.16164 20.4001 10.8004C20.4001 13.5041 19.1251 15.9079 17.1413 17.4454L19.5788 20.1529C19.7213 20.3104 19.8001 20.5204 19.8001 20.7341C19.8001 21.2141 19.4101 21.6004 18.9338 21.6004H5.06635C4.58635 21.6004 4.2001 21.2104 4.2001 20.7341C4.2001 20.5204 4.27885 20.3141 4.42135 20.1529L6.85885 17.4454ZM9.88135 6.16164L10.2488 7.15164L11.2388 7.51914C11.5013 7.61664 11.5013 7.98414 11.2388 8.08164L10.2488 8.44914L9.88135 9.43914C9.78385 9.70164 9.41635 9.70164 9.31885 9.43914L8.95135 8.44914L7.96135 8.08164C7.69885 7.98414 7.69885 7.61664 7.96135 7.51914L8.95135 7.15164L9.31885 6.16164C9.41635 5.89914 9.78385 5.89914 9.88135 6.16164ZM14.1188 7.96164C14.2163 7.69914 14.5838 7.69914 14.6813 7.96164L15.3713 9.82914L17.2388 10.5191C17.5013 10.6166 17.5013 10.9841 17.2388 11.0816L15.3713 11.7716L14.6813 13.6391C14.5838 13.9016 14.2163 13.9016 14.1188 13.6391L13.4288 11.7716L11.5613 11.0816C11.2988 10.9841 11.2988 10.6166 11.5613 10.5191L13.4288 9.82914L14.1188 7.96164Z"
            fill="#A594F9" />
    </g>
    <defs>
        <filter id="filter0_d_832_7423" x="3.6001" y="2.40039" width="18.7998" height="21.2002"
            filterUnits="userSpaceOnUse" color-interpolation-filters="sRGB">
            <feFlood flood-opacity="0" result="BackgroundImageFix" />
            <feColorMatrix in="SourceAlpha" type="matrix" values="0 0 0 0 0 0 0 0 0 0 0 0 0 0 0 0 0 0 127 0"
                result="hardAlpha" />
            <feOffset dx="2" dy="2" />
            <feComposite in2="hardAlpha" operator="out" />
            <feColorMatrix type="matrix" values="0 0 0 0 0 0 0 0 0 0 0 0 0 0 0 0 0 0 0.24 0" />
            <feBlend mode="normal" in2="BackgroundImageFix" result="effect1_dropShadow_832_7423" />
            <feBlend mode="normal" in="SourceGraphic" in2="effect1_dropShadow_832_7423" result="shape" />
        </filter>
    </defs>
</svg>