<svg width="24" height="24" viewBox="0 0 24 24" fill="none" xmlns="http://www.w3.org/2000/svg">
    <g opacity="0.4">
        <path
            d="M20.0205 8.29785C20.2669 9.08834 20.4004 9.92921 20.4004 10.8008C20.4003 13.5043 19.1251 15.9079 17.1416 17.4453L19.5791 20.1533C19.7214 20.3108 19.7998 20.5208 19.7998 20.7344C19.7997 21.2143 19.4098 21.6006 18.9336 21.6006H5.06641C4.58648 21.6006 4.20032 21.2105 4.2002 20.7344C4.2002 20.5208 4.27866 20.3145 4.4209 20.1533L6.37988 17.9756L7.0332 18.6289C7.76802 19.3637 8.95952 19.3637 9.69434 18.6289L11.5225 16.8008H14.7529C17.0252 15.7583 18.5995 13.4631 18.5996 10.8008C18.5996 10.4603 18.5741 10.1254 18.5244 9.79883L19.9805 8.34375C19.9949 8.32935 20.0066 8.31257 20.0205 8.29785Z"
            fill="white" fill-opacity="0.48" />
        <path
            d="M12 2.40039C14.3637 2.40039 16.4979 3.37858 18.0244 4.9502C17.6901 5.03876 17.3735 5.21247 17.1113 5.47461L16.5566 6.02832C15.3719 4.89672 13.7677 4.2002 12 4.2002C8.35505 4.20025 5.40039 7.15581 5.40039 10.8008C5.40042 11.2657 5.44862 11.7194 5.54004 12.1572C4.99293 12.1343 4.43828 12.3296 4.02051 12.7471C3.96686 12.8007 3.91748 12.8572 3.87109 12.915C3.69603 12.2394 3.59964 11.5314 3.59961 10.8008C3.59961 6.16206 7.3613 2.40044 12 2.40039Z"
            fill="white" fill-opacity="0.48" />
        <path d="M11.5215 11.0625C11.3001 10.9441 11.3133 10.6117 11.5615 10.5195L12.3613 10.2227L11.5215 11.0625Z"
            fill="white" fill-opacity="0.48" />
        <path
            d="M9.31836 6.16211C9.41586 5.89961 9.78336 5.89961 9.88086 6.16211L10.249 7.15137L11.2393 7.51953C11.5012 7.61728 11.5014 7.98446 11.2393 8.08203L10.249 8.44922L9.88086 9.43945C9.78313 9.70148 9.41587 9.70169 9.31836 9.43945L8.95117 8.44922L7.96094 8.08203C7.69883 7.98446 7.699 7.61728 7.96094 7.51953L8.95117 7.15137L9.31836 6.16211Z"
            fill="white" fill-opacity="0.48" />
        <path d="M14.1191 7.96191C14.2114 7.71348 14.5449 7.70008 14.6631 7.92188L13.8223 8.76172L14.1191 7.96191Z"
            fill="white" fill-opacity="0.48" />
    </g>
    <path
        d="M8.98705 17.9226C8.64276 18.2668 8.08454 18.2668 7.74025 17.9226L4.72697 14.9093C4.32538 14.5077 4.32538 13.8566 4.72697 13.455C5.12856 13.0534 5.77966 13.0534 6.18124 13.455L8.36365 15.6374L17.818 6.18218C18.2198 5.78034 18.8713 5.78043 19.273 6.18239C19.6744 6.58414 19.6743 7.23525 19.2727 7.63687L8.98705 17.9226Z"
        fill="white" fill-opacity="0.48" />
</svg>