<svg width="24" height="24" viewBox="0 0 24 24" fill="none" xmlns="http://www.w3.org/2000/svg">
    <path opacity="0.4"
        d="M4.20738 12.6971C4.21863 13.0271 4.49613 13.2859 4.82613 13.2746L10.8824 13.0646C11.2499 13.0534 11.5836 13.2634 11.7336 13.5971C11.8836 13.9309 11.8161 14.3209 11.5649 14.5871C11.4599 14.6959 11.3999 14.8384 11.3999 14.9996C11.3999 15.3296 11.6699 15.5996 11.9999 15.5996C12.3411 15.5996 12.6524 15.7909 12.8061 16.0984C12.9599 16.4059 12.9261 16.7696 12.7199 17.0396C12.6449 17.1409 12.5999 17.2646 12.5999 17.3996C12.5999 17.7296 12.8699 17.9996 13.1999 17.9996H17.0999C18.5924 17.9996 19.7999 16.7921 19.7999 15.2996V10.5971C19.7999 9.90711 19.6161 9.22836 19.2674 8.63211L19.2111 8.53461C18.5136 7.33461 17.2311 6.59961 15.8436 6.59961H15.4611C15.0374 6.59961 14.6361 6.77961 14.3511 7.09086L13.6611 7.85211C13.6386 7.87461 13.6199 7.90086 13.5974 7.92336L15.7349 8.41836C16.0574 8.49336 16.2599 8.81586 16.1849 9.13836C16.1099 9.46086 15.7874 9.66336 15.4649 9.58836L12.2549 8.84211L5.18613 7.27461C4.86363 7.20336 4.54113 7.40586 4.46988 7.73211C4.39863 8.05836 4.60113 8.37711 4.92738 8.44836L11.9586 10.0084C12.3411 10.0946 12.6261 10.4171 12.6599 10.8109L12.6636 10.8484C12.6861 11.0959 12.6074 11.3396 12.4461 11.5271C12.2849 11.7146 12.0486 11.8234 11.8011 11.8346L4.78488 12.0784C4.45488 12.0896 4.19613 12.3671 4.20738 12.7009V12.6971Z"
        fill="#FF9B85" />
    <g filter="url(#filter0_d_832_7417)">
        <path
            d="M2.40766 12.7611C2.36266 11.4373 3.39766 10.3236 4.72141 10.2786L4.84516 10.2748L4.53766 10.2073C3.24391 9.91856 2.42641 8.63605 2.71141 7.3423C2.99641 6.04855 4.28266 5.23105 5.57641 5.5198L12.0639 6.95605C12.1502 6.8473 12.2364 6.7423 12.3302 6.6373L13.0202 5.87605C13.6464 5.19355 14.5314 4.7998 15.4614 4.7998H15.8439C17.8727 4.7998 19.7477 5.87605 20.7677 7.6273L20.8239 7.7248C20.0477 8.17855 20.0477 8.17855 20.8239 7.7248C21.3339 8.5948 21.6002 9.58856 21.6002 10.5973V15.2998C21.6002 17.7861 19.5864 19.7998 17.1002 19.7998H13.2002C11.8764 19.7998 10.8002 18.7236 10.8002 17.3998C10.8002 17.2948 10.8077 17.1898 10.8189 17.0886C10.0914 16.6761 9.60016 15.8961 9.60016 14.9998C9.60016 14.9698 9.60016 14.9398 9.60016 14.9098L4.89016 15.0748C3.56641 15.1198 2.45266 14.0848 2.40766 12.7611ZM4.78516 12.0786C4.45516 12.0898 4.19641 12.3673 4.20766 12.7011C4.21891 13.0348 4.49641 13.2898 4.82641 13.2786L10.8827 13.0686C11.2502 13.0573 11.5839 13.2673 11.7339 13.6011C11.8839 13.9348 11.8164 14.3248 11.5652 14.5911C11.4602 14.6998 11.4002 14.8423 11.4002 15.0036C11.4002 15.3336 11.6702 15.6036 12.0002 15.6036C12.3414 15.6036 12.6527 15.7948 12.8064 16.1023C12.9602 16.4098 12.9264 16.7736 12.7202 17.0436C12.6452 17.1448 12.6002 17.2686 12.6002 17.4036C12.6002 17.7336 12.8702 18.0036 13.2002 18.0036H17.1002C18.5927 18.0036 19.8002 16.7961 19.8002 15.3036V10.6011C19.8002 9.91106 19.6164 9.23231 19.2677 8.63605L19.2114 8.53855C18.5139 7.33855 17.2314 6.60355 15.8439 6.60355H15.4614C15.0377 6.60355 14.6364 6.78355 14.3514 7.0948L13.6614 7.85605C13.6389 7.87855 13.6202 7.9048 13.5977 7.9273L15.7352 8.42231C16.0577 8.49731 16.2602 8.81981 16.1852 9.1423C16.1102 9.46481 15.7877 9.6673 15.4652 9.59231L12.2552 8.84231L5.18641 7.2748C4.86391 7.20355 4.54141 7.40605 4.47016 7.7323C4.39891 8.05855 4.60141 8.37731 4.92766 8.44855L11.9589 10.0086C12.3414 10.0948 12.6264 10.4173 12.6602 10.8111L12.6639 10.8486C12.6864 11.0961 12.6077 11.3398 12.4464 11.5273C12.2852 11.7148 12.0489 11.8236 11.8014 11.8348L4.78516 12.0786Z"
            fill="#FF9B85" />
    </g>
    <defs>
        <filter id="filter0_d_832_7417" x="2.40625" y="4.7998" width="21.1938" height="17" filterUnits="userSpaceOnUse"
            color-interpolation-filters="sRGB">
            <feFlood flood-opacity="0" result="BackgroundImageFix" />
            <feColorMatrix in="SourceAlpha" type="matrix" values="0 0 0 0 0 0 0 0 0 0 0 0 0 0 0 0 0 0 127 0"
                result="hardAlpha" />
            <feOffset dx="2" dy="2" />
            <feComposite in2="hardAlpha" operator="out" />
            <feColorMatrix type="matrix" values="0 0 0 0 0 0 0 0 0 0 0 0 0 0 0 0 0 0 0.24 0" />
            <feBlend mode="normal" in2="BackgroundImageFix" result="effect1_dropShadow_832_7417" />
            <feBlend mode="normal" in="SourceGraphic" in2="effect1_dropShadow_832_7417" result="shape" />
        </filter>
    </defs>
</svg>