<svg width="24" height="24" viewBox="0 0 24 24" fill="none" xmlns="http://www.w3.org/2000/svg">
    <path opacity="0.5"
        d="M14.4002 3.9998V5.5998H17.6002V3.9998C17.6002 3.1173 16.8827 2.3998 16.0002 2.3998C15.1177 2.3998 14.4002 3.1173 14.4002 3.9998ZM12.8002 5.5998V3.9998C12.8002 2.2323 14.2327 0.799805 16.0002 0.799805C17.7677 0.799805 19.2002 2.2323 19.2002 3.9998V5.5998C20.0827 5.5998 20.8002 6.3173 20.8002 7.1998V12.7998C20.8002 13.6823 20.0827 14.3998 19.2002 14.3998H12.8002C11.9177 14.3998 11.2002 13.6823 11.2002 12.7998V7.1998C11.2002 6.3173 11.9177 5.5998 12.8002 5.5998Z"
        fill="#7FC8F8" />
    <g opacity="0.5">
        <path
            d="M11.0996 14.7627C11.5558 15.1582 12.1494 15.3993 12.7998 15.3994H12.9004V19.5C12.9002 19.9985 12.4986 20.3994 12 20.3994C11.5014 20.3994 11.0998 19.9986 11.0996 19.5V14.7627Z"
            fill="#7FC8F8" />
        <path fill-rule="evenodd" clip-rule="evenodd"
            d="M2.95508 6.06738C3.2925 5.92869 3.67876 6.0031 3.9375 6.26172L9.03711 11.3623C9.38961 11.7148 9.38961 12.285 9.03711 12.6338L3.9375 17.7373C3.67875 17.996 3.29256 18.0704 2.95508 17.9316C2.61759 17.7929 2.39941 17.4634 2.39941 17.0996V6.89941C2.39949 6.53574 2.61764 6.20611 2.95508 6.06738ZM4.2002 14.9287L7.12891 12L4.2002 9.07129V14.9287Z"
            fill="#7FC8F8" />
        <path
            d="M21.5996 17.0996C21.5996 17.4633 21.3823 17.7928 21.0449 17.9316C20.7075 18.0704 20.3212 17.9959 20.0625 17.7373L17.7246 15.3994H19.2002C20.2806 15.3994 21.2074 14.7387 21.5996 13.7998V17.0996Z"
            fill="#7FC8F8" />
        <path
            d="M11.8174 3.61816C11.806 3.74394 11.7998 3.87127 11.7998 4V4.7998C11.5427 4.90723 11.3071 5.05551 11.0996 5.23535V4.5C11.0996 4.06384 11.4068 3.70205 11.8174 3.61816Z"
            fill="#7FC8F8" />
    </g>
</svg>