<svg width="24" height="24" viewBox="0 0 24 24" fill="none" xmlns="http://www.w3.org/2000/svg">
    <path opacity="0.5"
        d="M14.4002 3.9998V5.5998H17.6002V3.9998C17.6002 3.1173 16.8827 2.3998 16.0002 2.3998C15.1177 2.3998 14.4002 3.1173 14.4002 3.9998ZM12.8002 5.5998V3.9998C12.8002 2.2323 14.2327 0.799805 16.0002 0.799805C17.7677 0.799805 19.2002 2.2323 19.2002 3.9998V5.5998C20.0827 5.5998 20.8002 6.3173 20.8002 7.1998V12.7998C20.8002 13.6823 20.0827 14.3998 19.2002 14.3998H12.8002C11.9177 14.3998 11.2002 13.6823 11.2002 12.7998V7.1998C11.2002 6.3173 11.9177 5.5998 12.8002 5.5998Z"
        fill="#FCAC6F" />
    <g opacity="0.5">
        <path
            d="M21.6075 19.2002L21.5967 19.4434C21.4805 20.5722 20.5839 21.4725 19.4551 21.585L19.211 21.5958H12.0118L11.7676 21.585C10.6389 21.4687 9.73852 20.5721 9.62602 19.4434L9.61528 19.2002V18.0674L11.0518 18.4532L11.2764 18.5059C11.3214 18.5171 11.3664 18.5248 11.4151 18.5323V19.2002C11.4153 19.5301 11.6858 19.7999 12.0157 19.7999H19.2149C19.5448 19.7999 19.8153 19.5301 19.8155 19.2002V15.3223C20.631 15.1238 21.2959 14.5432 21.6075 13.7784V19.2002Z"
            fill="#FCAC6F" />
        <path
            d="M4.48149 4.13286C4.93523 2.94038 6.17268 2.22351 7.43266 2.42974L7.70317 2.48638L11.8194 3.58892C11.8062 3.72417 11.7998 3.86134 11.7998 4.00005V4.79985C11.532 4.91179 11.287 5.06765 11.0733 5.25786L7.29399 4.24517L7.12114 4.20708L7.12504 4.20317C6.72011 4.14703 6.32287 4.38015 6.17289 4.75884L6.12797 4.90532L4.23442 11.9698C4.10694 12.4497 4.39131 12.9409 4.87113 13.0723L11.0664 14.7334C11.5267 15.1464 12.1335 15.3994 12.7998 15.3995H14.5782C14.0376 16.389 12.92 16.9558 11.7823 16.7696L11.5127 16.7139L4.40629 14.8086C3.0565 14.4449 2.22028 13.1213 2.43754 11.7715L2.49809 11.501L4.40239 4.39458L4.4893 4.13286H4.48149Z"
            fill="#FCAC6F" />
        <path
            d="M10.2002 12.7999C10.2002 12.9449 10.2144 13.087 10.2373 13.2256C10.2233 13.205 10.209 13.1841 10.1963 13.1622C9.99856 12.8222 10.0143 12.4175 10.2002 12.1016V12.7999Z"
            fill="#FCAC6F" />
        <path
            d="M6.04106 10.1885C6.54356 9.89977 7.18508 10.0727 7.47758 10.5752C7.76613 11.0739 7.59419 11.7191 7.09184 12.0079C6.58942 12.2966 5.94804 12.1236 5.65922 11.625C5.36677 11.1226 5.53874 10.4773 6.04106 10.1885Z"
            fill="#FCAC6F" />
        <path
            d="M9.07914 8.68852C9.4418 8.48024 9.87635 8.51262 10.2002 8.7354V10.461C10.177 10.4769 10.1538 10.4936 10.1289 10.5079C9.6265 10.7964 8.98506 10.6237 8.69633 10.125C8.40383 9.62255 8.57664 8.97727 9.07914 8.68852Z"
            fill="#FCAC6F" />
        <path
            d="M7.57914 5.65142C8.08164 5.3627 8.72317 5.53467 9.01567 6.03716C9.30438 6.53588 9.13139 7.18101 8.62895 7.46977C8.12645 7.75852 7.48508 7.58571 7.19633 7.08696C6.90413 6.58451 7.07676 5.9401 7.57914 5.65142Z"
            fill="#FCAC6F" />
    </g>
</svg>