<svg width="24" height="24" viewBox="0 0 24 24" fill="none" xmlns="http://www.w3.org/2000/svg">
    <path opacity="0.4"
        d="M4.23012 11.9701C4.10262 12.4501 4.38762 12.9413 4.86762 13.0726L11.9739 14.9776C12.4239 15.0976 12.8851 14.8538 13.0501 14.4301L13.0764 14.3438L14.9814 7.23757L15.0076 7.06882C15.0339 6.68257 14.8089 6.31507 14.4451 6.16882L14.3026 6.12382L7.29387 4.24507L7.12137 4.20757C6.71637 4.15132 6.31887 4.38382 6.16887 4.76257L6.12387 4.90882L4.23012 11.9738V11.9701ZM7.47762 10.5751C7.76637 11.0776 7.59387 11.7188 7.09512 12.0113C6.59262 12.3001 5.94762 12.1276 5.65887 11.6251C5.37012 11.1226 5.54262 10.4813 6.04512 10.1926C6.54387 9.90007 7.18887 10.0726 7.47762 10.5751ZM9.01512 6.03757C9.30387 6.54007 9.13137 7.18132 8.63262 7.47382C8.13012 7.76257 7.48512 7.59007 7.19637 7.08757C6.90762 6.58507 7.08012 5.94382 7.58262 5.65507C8.08137 5.36257 8.72637 5.53507 9.01512 6.03757ZM10.5151 9.07507C10.8039 9.57757 10.6314 10.2188 10.1326 10.5113C9.63012 10.8001 8.98512 10.6276 8.69637 10.1251C8.40762 9.62257 8.58012 8.98132 9.08262 8.69257C9.58137 8.40007 10.2264 8.57257 10.5151 9.07507ZM12.0151 12.1126C12.3039 12.6151 12.1314 13.2563 11.6326 13.5488C11.1301 13.8376 10.4851 13.6651 10.1964 13.1626C9.90762 12.6601 10.0801 12.0188 10.5826 11.7301C11.0814 11.4376 11.7264 11.6101 12.0151 12.1126ZM13.5526 7.57507C13.8414 8.07757 13.6689 8.71882 13.1701 9.01132C12.6676 9.30007 12.0226 9.12757 11.7339 8.62507C11.4451 8.12257 11.6176 7.48132 12.1201 7.19257C12.6189 6.90007 13.2639 7.07257 13.5526 7.57507Z"
        fill="#FCAC6F" />
    <g filter="url(#filter0_d_832_7405)">
        <path
            d="M19.4514 9.61101C20.6626 9.73477 21.6076 10.7548 21.6076 11.9998V19.1998L21.5964 19.4435C21.4801 20.5723 20.5839 21.4723 19.4551 21.5848L19.2114 21.596H12.0114L11.7676 21.5848C10.6389 21.4685 9.73886 20.5723 9.62636 19.4435L9.61511 19.1998V18.0673L11.0514 18.4535L11.2764 18.506C11.3214 18.5173 11.3664 18.5248 11.4151 18.5323V19.1998C11.4151 19.5298 11.6851 19.7998 12.0151 19.7998H19.2151C19.5451 19.7998 19.8151 19.5298 19.8151 19.1998V11.9998C19.8151 11.6698 19.5451 11.3998 19.2151 11.3998H17.5989L18.0789 9.59977H19.2114L19.4551 9.61101H19.4514ZM4.48136 4.13227C4.93511 2.93977 6.17261 2.22352 7.43261 2.42977L7.70261 2.48602L14.8126 4.39102L15.0751 4.47727C16.3539 4.96477 17.0814 6.34852 16.7214 7.69852L14.8164 14.8048L14.7339 15.0673C14.2801 16.2598 13.0426 16.976 11.7826 16.7698L11.5126 16.7135L4.40636 14.8085C3.05636 14.4448 2.22011 13.121 2.43761 11.771L2.49761 11.501L4.40261 4.39477L4.48886 4.13227H4.48136ZM7.12511 4.20352C6.72011 4.14727 6.32261 4.37977 6.17261 4.75852L6.12761 4.90477L4.23386 11.9698C4.10636 12.4498 4.39136 12.941 4.87136 13.0723L11.9776 14.9773C12.4276 15.0973 12.8889 14.8535 13.0501 14.4298L13.0764 14.3435L14.9814 7.23727L15.0076 7.06852C15.0339 6.68227 14.8089 6.31477 14.4451 6.16852L14.3026 6.12352L7.29386 4.24477L7.12136 4.20727L7.12511 4.20352ZM11.6289 13.5448C11.1264 13.8335 10.4851 13.661 10.1964 13.1623C9.90386 12.6598 10.0764 12.0148 10.5789 11.726C11.0814 11.4373 11.7226 11.6098 12.0151 12.1123C12.3039 12.611 12.1314 13.256 11.6289 13.5448ZM7.09136 12.0073C6.58886 12.296 5.94761 12.1235 5.65886 11.6248C5.36636 11.1223 5.53886 10.4773 6.04136 10.1885C6.54386 9.89977 7.18511 10.0723 7.47761 10.5748C7.76636 11.0735 7.59386 11.7185 7.09136 12.0073ZM10.1289 10.5073C9.62636 10.796 8.98511 10.6235 8.69636 10.1248C8.40386 9.62227 8.57636 8.97727 9.07886 8.68852C9.58136 8.39977 10.2226 8.57227 10.5151 9.07477C10.8039 9.57352 10.6314 10.2185 10.1289 10.5073ZM13.1664 9.00727C12.6639 9.29602 12.0226 9.12352 11.7339 8.62477C11.4414 8.12227 11.6139 7.47727 12.1164 7.18852C12.6189 6.89977 13.2601 7.07227 13.5526 7.57477C13.8414 8.07352 13.6689 8.71852 13.1664 9.00727ZM8.62886 7.46977C8.12636 7.75852 7.48511 7.58602 7.19636 7.08727C6.90386 6.58477 7.07636 5.93977 7.57886 5.65102C8.08136 5.36227 8.72261 5.53477 9.01511 6.03727C9.30386 6.53602 9.13136 7.18102 8.62886 7.46977Z"
            fill="#FCAC6F" />
    </g>
    <defs>
        <filter id="filter0_d_832_7405" x="2.40332" y="2.39453" width="21.2041" height="21.2012"
            filterUnits="userSpaceOnUse" color-interpolation-filters="sRGB">
            <feFlood flood-opacity="0" result="BackgroundImageFix" />
            <feColorMatrix in="SourceAlpha" type="matrix" values="0 0 0 0 0 0 0 0 0 0 0 0 0 0 0 0 0 0 127 0"
                result="hardAlpha" />
            <feOffset dx="2" dy="2" />
            <feComposite in2="hardAlpha" operator="out" />
            <feColorMatrix type="matrix" values="0 0 0 0 0 0 0 0 0 0 0 0 0 0 0 0 0 0 0.24 0" />
            <feBlend mode="normal" in2="BackgroundImageFix" result="effect1_dropShadow_832_7405" />
            <feBlend mode="normal" in="SourceGraphic" in2="effect1_dropShadow_832_7405" result="shape" />
        </filter>
    </defs>
</svg>